<mxfile host="app.diagrams.net" agent="Mozilla/5.0 (Windows NT 10.0; Win64; x64) AppleWebKit/537.36 (KHTML, like Gecko) Chrome/135.0.0.0 Safari/537.36" version="24.8.3">
  <diagram name="Sayfa -1" id="qWSuqQF-Tn3LPydZjnSF">
    <mxGraphModel dx="1404" dy="593" grid="1" gridSize="10" guides="1" tooltips="1" connect="1" arrows="1" fold="1" page="1" pageScale="1" pageWidth="827" pageHeight="1169" math="0" shadow="0">
      <root>
        <mxCell id="0" />
        <mxCell id="1" parent="0" />
        <mxCell id="ZY_Px8CXBRAloq1ge7Q7-2" value="" style="rounded=0;whiteSpace=wrap;html=1;" vertex="1" parent="1">
          <mxGeometry x="400" y="50" width="190" height="390" as="geometry" />
        </mxCell>
        <mxCell id="ZY_Px8CXBRAloq1ge7Q7-25" style="edgeStyle=orthogonalEdgeStyle;rounded=0;orthogonalLoop=1;jettySize=auto;html=1;exitX=1;exitY=1;exitDx=0;exitDy=0;exitPerimeter=0;entryX=0.5;entryY=0;entryDx=0;entryDy=0;" edge="1" parent="1" source="ZY_Px8CXBRAloq1ge7Q7-3" target="ZY_Px8CXBRAloq1ge7Q7-16">
          <mxGeometry relative="1" as="geometry">
            <mxPoint x="480" y="290" as="targetPoint" />
            <Array as="points">
              <mxPoint x="280" y="330" />
              <mxPoint x="481" y="330" />
              <mxPoint x="481" y="350" />
              <mxPoint x="490" y="350" />
            </Array>
          </mxGeometry>
        </mxCell>
        <mxCell id="ZY_Px8CXBRAloq1ge7Q7-27" style="edgeStyle=orthogonalEdgeStyle;rounded=0;orthogonalLoop=1;jettySize=auto;html=1;exitX=0.5;exitY=0;exitDx=0;exitDy=0;exitPerimeter=0;entryX=0;entryY=0.5;entryDx=0;entryDy=0;" edge="1" parent="1" source="ZY_Px8CXBRAloq1ge7Q7-3" target="ZY_Px8CXBRAloq1ge7Q7-10">
          <mxGeometry relative="1" as="geometry" />
        </mxCell>
        <mxCell id="ZY_Px8CXBRAloq1ge7Q7-28" style="edgeStyle=orthogonalEdgeStyle;rounded=0;orthogonalLoop=1;jettySize=auto;html=1;exitX=0.75;exitY=0.1;exitDx=0;exitDy=0;exitPerimeter=0;entryX=0;entryY=0.5;entryDx=0;entryDy=0;" edge="1" parent="1" source="ZY_Px8CXBRAloq1ge7Q7-3" target="ZY_Px8CXBRAloq1ge7Q7-13">
          <mxGeometry relative="1" as="geometry" />
        </mxCell>
        <mxCell id="ZY_Px8CXBRAloq1ge7Q7-3" value="&lt;font style=&quot;vertical-align: inherit;&quot;&gt;&lt;font style=&quot;vertical-align: inherit;&quot;&gt;kllanıcı&lt;/font&gt;&lt;/font&gt;" style="shape=umlActor;verticalLabelPosition=bottom;verticalAlign=top;html=1;outlineConnect=0;strokeColor=#B266FF;" vertex="1" parent="1">
          <mxGeometry x="250" y="160" width="30" height="50" as="geometry" />
        </mxCell>
        <mxCell id="ZY_Px8CXBRAloq1ge7Q7-17" style="edgeStyle=orthogonalEdgeStyle;rounded=0;orthogonalLoop=1;jettySize=auto;html=1;exitX=1;exitY=1;exitDx=0;exitDy=0;exitPerimeter=0;entryX=0;entryY=0.5;entryDx=0;entryDy=0;" edge="1" parent="1" source="ZY_Px8CXBRAloq1ge7Q7-4" target="ZY_Px8CXBRAloq1ge7Q7-16">
          <mxGeometry relative="1" as="geometry" />
        </mxCell>
        <mxCell id="ZY_Px8CXBRAloq1ge7Q7-26" style="edgeStyle=orthogonalEdgeStyle;rounded=0;orthogonalLoop=1;jettySize=auto;html=1;exitX=0.5;exitY=0;exitDx=0;exitDy=0;exitPerimeter=0;entryX=0.5;entryY=0;entryDx=0;entryDy=0;" edge="1" parent="1" source="ZY_Px8CXBRAloq1ge7Q7-4" target="ZY_Px8CXBRAloq1ge7Q7-10">
          <mxGeometry relative="1" as="geometry" />
        </mxCell>
        <mxCell id="ZY_Px8CXBRAloq1ge7Q7-29" style="edgeStyle=orthogonalEdgeStyle;rounded=0;orthogonalLoop=1;jettySize=auto;html=1;exitX=1;exitY=0.3333333333333333;exitDx=0;exitDy=0;exitPerimeter=0;entryX=0.5;entryY=0;entryDx=0;entryDy=0;" edge="1" parent="1" source="ZY_Px8CXBRAloq1ge7Q7-4" target="ZY_Px8CXBRAloq1ge7Q7-13">
          <mxGeometry relative="1" as="geometry">
            <Array as="points">
              <mxPoint x="170" y="150" />
              <mxPoint x="495" y="150" />
            </Array>
          </mxGeometry>
        </mxCell>
        <mxCell id="ZY_Px8CXBRAloq1ge7Q7-4" value="esnaf&lt;div&gt;&lt;br&gt;&lt;/div&gt;" style="shape=umlActor;verticalLabelPosition=bottom;verticalAlign=top;html=1;outlineConnect=0;strokeColor=#009900;" vertex="1" parent="1">
          <mxGeometry x="130" y="110" width="40" height="50" as="geometry" />
        </mxCell>
        <mxCell id="ZY_Px8CXBRAloq1ge7Q7-10" value="&lt;font style=&quot;vertical-align: inherit;&quot;&gt;&lt;font style=&quot;vertical-align: inherit;&quot;&gt;Kayıt Ol&lt;/font&gt;&lt;/font&gt;" style="ellipse;whiteSpace=wrap;html=1;" vertex="1" parent="1">
          <mxGeometry x="455" y="110" width="50" height="30" as="geometry" />
        </mxCell>
        <mxCell id="ZY_Px8CXBRAloq1ge7Q7-13" value="&lt;font style=&quot;vertical-align: inherit;&quot;&gt;&lt;font style=&quot;vertical-align: inherit;&quot;&gt;Giriş Yap&lt;/font&gt;&lt;/font&gt;" style="ellipse;whiteSpace=wrap;html=1;" vertex="1" parent="1">
          <mxGeometry x="455" y="230" width="80" height="30" as="geometry" />
        </mxCell>
        <mxCell id="ZY_Px8CXBRAloq1ge7Q7-16" value="&lt;font style=&quot;vertical-align: inherit;&quot;&gt;&lt;font style=&quot;vertical-align: inherit;&quot;&gt;Şifremi Unuttum&lt;/font&gt;&lt;/font&gt;" style="ellipse;whiteSpace=wrap;html=1;" vertex="1" parent="1">
          <mxGeometry x="455" y="360" width="70" height="50" as="geometry" />
        </mxCell>
        <mxCell id="ZY_Px8CXBRAloq1ge7Q7-30" value="&lt;font style=&quot;vertical-align: inherit;&quot;&gt;&lt;font style=&quot;vertical-align: inherit;&quot;&gt;Admin&lt;/font&gt;&lt;/font&gt;" style="shape=umlActor;verticalLabelPosition=bottom;verticalAlign=top;html=1;outlineConnect=0;" vertex="1" parent="1">
          <mxGeometry x="670" y="140" width="30" height="60" as="geometry" />
        </mxCell>
      </root>
    </mxGraphModel>
  </diagram>
</mxfile>
